<svg width="16" height="16" xmlns="http://www.w3.org/2000/svg">
  <title>CardList icon</title>
  <g>
    <title>Layer 1</title>
    <path fill="grey" id="svg_1"
    d="m14.5,3a0.5,0.5 0 0 1 0.5,0.5l0,9a0.5,0.5 0 0 1 -0.5,0.5l-13,0a0.5,0.5 0 0 1 -0.5,-0.5l0,-9a0.5,0.5 0 0 1 0.5,-0.5l13,0zm-13,-1a1.5,1.5 0 0 0 -1.5,1.5l0,9a1.5,1.5 0 0 0 1.5,1.5l13,0a1.5,1.5 0 0 0 1.5,-1.5l0,-9a1.5,1.5 0 0 0 -1.5,-1.5l-13,0z" />
    <path fill="grey" id="svg_2"
    d="m5,8a0.5,0.5 0 0 1 0.5,-0.5l7,0a0.5,0.5 0 0 1 0,1l-7,0a0.5,0.5 0 0 1 -0.5,-0.5zm0,-2.5a0.5,0.5 0 0 1 0.5,-0.5l7,0a0.5,0.5 0 0 1 0,1l-7,0a0.5,0.5 0 0 1 -0.5,-0.5zm0,5a0.5,0.5 0 0 1 0.5,-0.5l7,0a0.5,0.5 0 0 1 0,1l-7,0a0.5,0.5 0 0 1 -0.5,-0.5zm-1,-5a0.5,0.5 0 1 1 -1,0a0.5,0.5 0 0 1 1,0zm0,2.5a0.5,0.5 0 1 1 -1,0a0.5,0.5 0 0 1 1,0zm0,2.5a0.5,0.5 0 1 1 -1,0a0.5,0.5 0 0 1 1,0z" />
  </g>
</svg>
